<svg id="Layer_1" data-name="Layer 1" xmlns="http://www.w3.org/2000/svg" viewBox="0 0 150 45"><defs><style>.cls-1{fill:#78bf7d;}.cls-2{fill:none;}.cls-3{fill:#f9f9f9;}.cls-4{fill:#fff;}.cls-5{fill:#003953;}</style></defs><path class="cls-1" d="M118.31,10.48h0l3.53,10.66-.14-8Z"/><path class="cls-2" d="M27.23,15.48a3.17,3.17,0,0,0,2,.63,4.9,4.9,0,0,0,2.57-.67,6.65,6.65,0,0,0,1.92-1.75,7.64,7.64,0,0,0,1.2-2.34,8.2,8.2,0,0,0,.4-2.5A6.26,6.26,0,0,0,35,6.66,3.67,3.67,0,0,0,33.77,5a3.25,3.25,0,0,0-2.05-.62,4.88,4.88,0,0,0-2.51.66A6.26,6.26,0,0,0,27.3,6.8a8.5,8.5,0,0,0-1.22,2.33,8,8,0,0,0-.42,2.5,6.36,6.36,0,0,0,.38,2.2A3.71,3.71,0,0,0,27.23,15.48Z"/><path class="cls-2" d="M51.44,9.53a2.72,2.72,0,0,0,.75-.7,3.66,3.66,0,0,0,.55-1.06,4.21,4.21,0,0,0,.2-1.27,2.82,2.82,0,0,0-.18-1.07,1.56,1.56,0,0,0-.47-.68,1,1,0,0,0-.66-.25H48.08L47,9.77h3.69A1.57,1.57,0,0,0,51.44,9.53Z"/><path class="cls-2" d="M68.22,15.46a5.86,5.86,0,0,0,1.91-1.6,7.87,7.87,0,0,0,1.26-2.34,8.41,8.41,0,0,0,.45-2.76,5.56,5.56,0,0,0-.42-2.24A3.46,3.46,0,0,0,70.19,5a3.49,3.49,0,0,0-2-.54H65.75L63.29,16h2.43A5.38,5.38,0,0,0,68.22,15.46Z"/><polygon class="cls-3" points="7.2 8.87 13.02 19.96 16.59 19.96 20.72 0.57 16.21 0.57 13.81 11.96 7.96 0.57 4.5 0.57 0.37 19.96 4.85 19.96 7.2 8.87"/><path class="cls-3" d="M23,17.63a6.89,6.89,0,0,0,2.29,1.8,7.14,7.14,0,0,0,3.14.67,10.17,10.17,0,0,0,3.54-.64,12.58,12.58,0,0,0,5.71-4.33A12.82,12.82,0,0,0,39.32,12a10.1,10.1,0,0,0,.6-3.42,9.91,9.91,0,0,0-.47-3,7.9,7.9,0,0,0-1.39-2.59A6.82,6.82,0,0,0,35.77,1.1,7.11,7.11,0,0,0,32.65.44a10.25,10.25,0,0,0-3.55.62,12.43,12.43,0,0,0-5.72,4.32,12.56,12.56,0,0,0-1.69,3.17A10,10,0,0,0,21.07,12a9.67,9.67,0,0,0,.48,3A8,8,0,0,0,23,17.63Zm3.12-8.5A8.5,8.5,0,0,1,27.3,6.8a6.26,6.26,0,0,1,1.91-1.72,4.88,4.88,0,0,1,2.51-.66A3.25,3.25,0,0,1,33.77,5,3.67,3.67,0,0,1,35,6.66a6.26,6.26,0,0,1,.38,2.19,8.2,8.2,0,0,1-.4,2.5,7.64,7.64,0,0,1-1.2,2.34,6.65,6.65,0,0,1-1.92,1.75,4.9,4.9,0,0,1-2.57.67,3.17,3.17,0,0,1-2-.63A3.71,3.71,0,0,1,26,13.83a6.36,6.36,0,0,1-.38-2.2A8,8,0,0,1,26.08,9.13Z"/><path class="cls-3" d="M46.09,13.71h2.54L50.73,20h5.08l-2.49-7.21A8.15,8.15,0,0,0,55,11.54a8.42,8.42,0,0,0,1.35-1.63A7.47,7.47,0,0,0,57.26,8a6.83,6.83,0,0,0,.3-2A6.37,6.37,0,0,0,57,3.4a5.13,5.13,0,0,0-1.64-2A4.29,4.29,0,0,0,52.78.57H44.42L40.3,20h4.48Zm2-9.21h3.55a1,1,0,0,1,.66.25,1.56,1.56,0,0,1,.47.68,2.82,2.82,0,0,1,.18,1.07,4.21,4.21,0,0,1-.2,1.27,3.66,3.66,0,0,1-.55,1.06,2.72,2.72,0,0,1-.75.7,1.57,1.57,0,0,1-.79.24H47Z"/><path class="cls-3" d="M69.48,19.07a11,11,0,0,0,3.67-2.47,11.21,11.21,0,0,0,2.42-3.75,12.85,12.85,0,0,0,.86-4.74,8.83,8.83,0,0,0-.81-3.82,6.12,6.12,0,0,0-2.44-2.72A7.89,7.89,0,0,0,69,.57H62.09L58,20h6.91A11.64,11.64,0,0,0,69.48,19.07ZM65.75,4.5h2.46a3.49,3.49,0,0,1,2,.54,3.46,3.46,0,0,1,1.23,1.48,5.56,5.56,0,0,1,.42,2.24,8.41,8.41,0,0,1-.45,2.76,7.87,7.87,0,0,1-1.26,2.34,5.86,5.86,0,0,1-1.91,1.6,5.38,5.38,0,0,1-2.5.57H63.29Z"/><polygon class="cls-3" points="85.49 0.57 81.02 0.57 76.89 19.96 81.37 19.96 85.49 0.57"/><path class="cls-3" d="M87.75,17.56a6.74,6.74,0,0,0,5.42,2.54,10.87,10.87,0,0,0,3.19-.51,11,11,0,0,0,3.12-1.51,8.57,8.57,0,0,0,2.35-2.49l-3.2-2.18A5.23,5.23,0,0,1,97.28,15a5.6,5.6,0,0,1-1.61.86,5.21,5.21,0,0,1-1.6.27,3.17,3.17,0,0,1-2-.63,3.8,3.8,0,0,1-1.21-1.68,6.08,6.08,0,0,1-.41-2.28A8.31,8.31,0,0,1,92,6.81a5.86,5.86,0,0,1,1.88-1.73,5.07,5.07,0,0,1,2.62-.66A5,5,0,0,1,98,4.65a3.28,3.28,0,0,1,1.3.8,3.09,3.09,0,0,1,.79,1.62l3.88-2.4a5.66,5.66,0,0,0-2.23-3A7.38,7.38,0,0,0,97.35.44a10.66,10.66,0,0,0-3.76.66,11.87,11.87,0,0,0-3.18,1.81A11.74,11.74,0,0,0,88,5.51a13,13,0,0,0-1.56,3.12,10.3,10.3,0,0,0-.54,3.25,10,10,0,0,0,.46,3A8,8,0,0,0,87.75,17.56Z"/><path class="cls-2" d="M47.38,32.89l1.87-.16,1.23-.12a5.66,5.66,0,0,0-.3-1.11A3.7,3.7,0,0,0,49,29.87a3.26,3.26,0,0,0-2.06-.61,4.89,4.89,0,0,0-2.52.66,6.3,6.3,0,0,0-1.92,1.72,8.37,8.37,0,0,0-1,1.69l2.1-.15C44.87,33.08,46.13,33,47.38,32.89Z"/><path class="cls-2" d="M82.5,34.45l-.66-5.25-.56.16c-.84.23-1.69.44-2.54.66l1,9.64Z"/><path class="cls-2" d="M88.24,27.23l-2.52.82L86,31.66Z"/><path class="cls-2" d="M66.81,29.34l-.19.89c1.38-.28,2.75-.58,4.12-.89Z"/><path class="cls-2" d="M41.24,38.67a3.63,3.63,0,0,0,1.19,1.65,3.18,3.18,0,0,0,2,.63A4.91,4.91,0,0,0,47,40.28,6.7,6.7,0,0,0,49,38.53a7.83,7.83,0,0,0,1.21-2.35,8.79,8.79,0,0,0,.37-1.85l-1.16.07-1.9.1c-1.26.07-2.52.11-3.78.17l-2.65.1a7.73,7.73,0,0,0-.2,1.7A6.13,6.13,0,0,0,41.24,38.67Z"/><path class="cls-2" d="M20.84,35.33a7.3,7.3,0,0,0-.09,1.14,6.13,6.13,0,0,0,.38,2.2,3.71,3.71,0,0,0,1.19,1.65,3.18,3.18,0,0,0,2,.63,4.91,4.91,0,0,0,2.58-.67,6.7,6.7,0,0,0,1.93-1.75,7.83,7.83,0,0,0,1.21-2.35,8.19,8.19,0,0,0,.26-1.06l-1.73.05Q24.71,35.28,20.84,35.33Z"/><path class="cls-2" d="M30.45,34.06c0-.12,0-.25,0-.38a6,6,0,0,0-.39-2.18,3.63,3.63,0,0,0-1.18-1.63,3.25,3.25,0,0,0-2.05-.61,4.9,4.9,0,0,0-2.53.66,6.3,6.3,0,0,0-1.92,1.72A8.1,8.1,0,0,0,21.17,34c-.07.21-.13.41-.18.61,2.52-.12,5-.26,7.56-.4Z"/><polygon class="cls-2" points="124.8 30.52 121.35 37.4 125.3 37.4 124.8 30.52"/><path class="cls-2" d="M143.48,34.37a2.77,2.77,0,0,0,.76-.7,3.64,3.64,0,0,0,.54-1.06,3.93,3.93,0,0,0,.21-1.27,2.82,2.82,0,0,0-.18-1.07,1.67,1.67,0,0,0-.48-.68,1,1,0,0,0-.66-.25h-3.56L139,34.61h3.71A1.57,1.57,0,0,0,143.48,34.37Z"/><path class="cls-4" d="M14,33.49H7.33l.91-4.15H16.3l.85-3.93H4.56L2.45,35.27c3.74-.09,7.49-.21,11.22-.36Z"/><path class="cls-4" d="M.42,44.8h4.5l1.64-7.62H13.2l.37-1.77c-3.72,0-7.43,0-11.15,0Z"/><path class="cls-4" d="M30.06,36.18a7.83,7.83,0,0,1-1.21,2.35,6.7,6.7,0,0,1-1.93,1.75,4.91,4.91,0,0,1-2.58.67,3.18,3.18,0,0,1-2-.63,3.71,3.71,0,0,1-1.19-1.65,6.13,6.13,0,0,1-.38-2.2,7.3,7.3,0,0,1,.09-1.14l-4.6.06a10,10,0,0,0,.38,4.48A7.93,7.93,0,0,0,18,42.46a6.83,6.83,0,0,0,2.3,1.81,7.23,7.23,0,0,0,3.16.67A10,10,0,0,0,27,44.29,12.52,12.52,0,0,0,32.77,40a12.22,12.22,0,0,0,1.69-3.16A9.94,9.94,0,0,0,34.93,35l-4.61.13A8.19,8.19,0,0,1,30.06,36.18Z"/><path class="cls-4" d="M18.45,30.22a13,13,0,0,0-1.7,3.16,10.36,10.36,0,0,0-.4,1.42L21,34.58c.05-.2.11-.4.18-.61a8.1,8.1,0,0,1,1.22-2.33,6.3,6.3,0,0,1,1.92-1.72,4.9,4.9,0,0,1,2.53-.66,3.25,3.25,0,0,1,2.05.61,3.63,3.63,0,0,1,1.18,1.63,6,6,0,0,1,.39,2.18c0,.13,0,.26,0,.38l4.61-.28c0-.13,0-.27,0-.4a9.9,9.9,0,0,0-.47-3,7.92,7.92,0,0,0-1.4-2.59,6.74,6.74,0,0,0-2.3-1.82,7.16,7.16,0,0,0-3.13-.67,10.33,10.33,0,0,0-3.57.63A12.06,12.06,0,0,0,21,27.64,12.28,12.28,0,0,0,18.45,30.22Z"/><path class="cls-4" d="M42.5,31.64a6.3,6.3,0,0,1,1.92-1.72,4.89,4.89,0,0,1,2.52-.66,3.26,3.26,0,0,1,2.06.61,3.7,3.7,0,0,1,1.18,1.63,5.66,5.66,0,0,1,.3,1.11l.65-.07c1.24-.11,2.49-.27,3.73-.42l.23,0a9.48,9.48,0,0,0-.38-1.74,7.92,7.92,0,0,0-1.4-2.59A6.68,6.68,0,0,0,51,25.94a7.08,7.08,0,0,0-3.12-.67,10.33,10.33,0,0,0-3.57.63,12.27,12.27,0,0,0-3.2,1.74,12.48,12.48,0,0,0-2.55,2.58,12.71,12.71,0,0,0-1.7,3.16l-.09.28c1.58-.1,3.17-.21,4.75-.33A8.37,8.37,0,0,1,42.5,31.64Z"/><path class="cls-4" d="M51.27,34.28l-.73,0a8.79,8.79,0,0,1-.37,1.85A7.83,7.83,0,0,1,49,38.53,6.7,6.7,0,0,1,47,40.28a4.91,4.91,0,0,1-2.58.67,3.18,3.18,0,0,1-2-.63,3.63,3.63,0,0,1-1.19-1.65,6.13,6.13,0,0,1-.39-2.2,7.73,7.73,0,0,1,.2-1.7l-4.62.17a9.9,9.9,0,0,0-.18,1.88,9.41,9.41,0,0,0,.48,3,7.75,7.75,0,0,0,1.41,2.59,6.83,6.83,0,0,0,2.3,1.81,7.23,7.23,0,0,0,3.16.67,10,10,0,0,0,3.55-.65,12.62,12.62,0,0,0,3.18-1.74A12.47,12.47,0,0,0,52.88,40a12.22,12.22,0,0,0,1.69-3.16A10.06,10.06,0,0,0,55.16,34h-.1C53.8,34.08,52.54,34.2,51.27,34.28Z"/><path class="cls-4" d="M66,30.36l.63-.13.19-.89h3.93L72.43,29l.74-3.54H57.56l-.85,3.93h5.6l-.38,1.75.36-.06C63.53,30.83,64.76,30.58,66,30.36Z"/><path class="cls-4" d="M61.46,33.27,59,44.8h4.5l2.62-12.2c-1.17.18-2.33.37-3.5.51Z"/><path class="cls-4" d="M88.24,27.23,86,31.66l-.29-3.61c-1.29.4-2.58.78-3.88,1.15l.66,5.25-2.77,5.21-1-9.64c-1.47.37-2.94.71-4.42,1L76.6,44.8h3.73l4.47-7.59L86,44.8h3.75l11.5-19.39H96.38L88.86,39.66l-.6-5.21,5-9h-.13q-2.27.89-4.56,1.67Z"/><path class="cls-4" d="M81.37,25.44l.13,1c1-.32,2-.64,3-1Z"/><path class="cls-4" d="M78.27,25.41H73.39l.52,3.17c1.53-.39,3-.8,4.56-1.24Z"/><polygon class="cls-4" points="112.24 36.74 113.03 33.11 105.93 33.11 106.72 29.34 115.01 29.34 115.86 25.41 103.05 25.41 98.9 44.8 111.96 44.8 112.78 40.87 104.25 40.87 105.13 36.74 112.24 36.74"/><path class="cls-4" d="M119.82,40.46h5.71l.31,4.34h4.61l-2.52-19.39h-4.09L113,44.8h4.61Zm5-9.94.5,6.88h-4Z"/><path class="cls-4" d="M138.1,38.55h2.56l2.11,6.25h5.1l-2.5-7.21a7.67,7.67,0,0,0,1.72-1.22,8.47,8.47,0,0,0,1.36-1.62,8.11,8.11,0,0,0,.88-1.89,6.71,6.71,0,0,0,.3-2,6.19,6.19,0,0,0-.57-2.63,5,5,0,0,0-1.64-2,4.26,4.26,0,0,0-2.59-.79h-8.4L132.29,44.8h4.5Zm2-9.21h3.56a1,1,0,0,1,.66.25,1.67,1.67,0,0,1,.48.68,2.82,2.82,0,0,1,.18,1.07,3.93,3.93,0,0,1-.21,1.27,3.64,3.64,0,0,1-.54,1.06,2.77,2.77,0,0,1-.76.7,1.57,1.57,0,0,1-.79.24H139Z"/><path class="cls-1" d="M47.48,34.5l1.9-.1,1.16-.07c0-.22,0-.43,0-.65a6.26,6.26,0,0,0-.09-1.07l-1.23.12-1.87.16c-1.25.11-2.51.19-3.76.29l-2.1.15c-.09.21-.17.42-.24.64s-.17.54-.23.8l2.65-.1C45,34.61,46.22,34.57,47.48,34.5Z"/><path class="cls-1" d="M36.43,34.94a10.09,10.09,0,0,1,.34-1.28l-1.71.12A9.94,9.94,0,0,1,34.93,35Z"/><path class="cls-1" d="M81.28,29.36l.56-.16-.34-2.78-1,.31-2,.61L78.74,30C79.59,29.8,80.44,29.59,81.28,29.36Z"/><path class="cls-1" d="M28.59,35.17l1.73-.05a7.49,7.49,0,0,0,.13-1.06l-1.9.12c-2.52.14-5,.28-7.56.4q-.09.38-.15.75Q24.71,35.27,28.59,35.17Z"/><path class="cls-1" d="M85.72,28.05l2.52-.82.9-1.79h4c.87-.35,1.74-.7,2.6-1.07,2.36-1,4.68-2.11,7-3.33a75.91,75.91,0,0,0,7.11-4.33l4.2-6-1.14-1.51A59.76,59.76,0,0,1,101,18c-2.14,1.24-4.33,2.37-6.58,3.42s-4.53,2-6.85,2.89c-1,.39-2.08.76-3.13,1.13h1.07Z"/><path class="cls-1" d="M13.67,34.91l-.1.5,2.67,0c0-.2.07-.4.11-.59Z"/><path class="cls-1" d="M55.16,34,57,33.79c.63-.06,1.26-.12,1.89-.2l1.89-.23.73-.09.47-2.18c-.49.08-1,.17-1.49.24l-1.86.29-1.86.26c-.54.07-1.08.15-1.63.21a9.31,9.31,0,0,1,.08,1.29C55.17,33.58,55.17,33.77,55.16,34Z"/><path class="cls-1" d="M70.74,29.34c-1.37.31-2.74.61-4.12.89l-.51,2.37.27,0c2.5-.41,5-.87,7.48-1.4l.46-.11-.41-2.47-.61.16-.87.21-.08.39Z"/><path class="cls-1" d="M2.45,35.27l0,.13c3.72,0,7.43,0,11.15,0l.1-.5C9.94,35.06,6.19,35.18,2.45,35.27Z"/><path class="cls-4" d="M30.32,35.12,34.93,35a9.94,9.94,0,0,0,.13-1.21l-4.61.28A7.49,7.49,0,0,1,30.32,35.12Z"/><path class="cls-1" d="M21,34.58l-4.64.22c0,.19-.08.39-.11.59l4.6-.06Q20.9,35,21,34.58Z"/><path class="cls-1" d="M51.13,32.54l-.65.07a6.26,6.26,0,0,1,.09,1.07c0,.22,0,.43,0,.65l.73,0c1.27-.08,2.53-.2,3.79-.3h.1c0-.2,0-.39,0-.59a9.31,9.31,0,0,0-.08-1.29l-.23,0C53.62,32.27,52.37,32.43,51.13,32.54Z"/><path class="cls-4" d="M41.05,34.77c.06-.26.14-.53.23-.8s.15-.43.24-.64c-1.58.12-3.17.23-4.75.33a10.09,10.09,0,0,0-.34,1.28Z"/><path class="cls-1" d="M72.35,29.34l.08-.39-1.69.39Z"/><path class="cls-1" d="M62.61,33.11c1.17-.14,2.33-.33,3.5-.51l.51-2.37-.63.13c-1.23.22-2.46.47-3.7.67l-.36.06-.47,2.18Z"/><path class="cls-1" d="M78.74,30l-.27-2.68c-1.51.44-3,.85-4.56,1.24l.41,2.47C75.8,30.73,77.27,30.39,78.74,30Z"/><path class="cls-1" d="M88.24,27.23l.35-.12q2.3-.78,4.56-1.67h-4Z"/><path class="cls-1" d="M85.72,28.05l-.2-2.61H84.45c-1,.34-2,.66-3,1l.34,2.78C83.14,28.83,84.43,28.45,85.72,28.05Z"/><polygon class="cls-5" points="118.3 10.48 118.3 10.48 118.3 10.48 118.3 10.48"/><rect class="cls-5" x="118.3" y="10.47" height="0.01" transform="translate(3.42 40.59) rotate(-19.75)"/><polygon class="cls-1" points="118.3 10.48 129.32 10.48 121.63 8.12 118.3 10.48 118.3 10.48"/><polygon class="cls-1" points="118.31 10.48 129.32 10.48 118.3 10.48 118.31 10.48"/><polygon class="cls-1" points="118.31 10.48 118.3 10.48 118.3 10.48 118.31 10.48"/><rect class="cls-1" x="118.3" y="10.48" height="0.01"/><polygon class="cls-1" points="118.3 10.48 118.3 10.48 118.3 10.48 118.3 10.48"/><polygon class="cls-1" points="118.31 10.48 118.3 10.48 118.31 10.48 118.31 10.48"/><polygon class="cls-1" points="118.3 10.48 109.38 17.32 117 14.71 118.3 10.48 118.3 10.48"/><polygon class="cls-1" points="118.3 10.48 118.3 10.48 118.3 10.48 118.3 10.48"/><path class="cls-1" d="M114.54,10.7l3.76-.22h0l-9.13-6.19,3.7,4.93L113,9.1Z"/><path class="cls-1" d="M114.54,10.7,113,9.1l-.12.12L114,10.73Z"/><rect class="cls-1" x="118.3" y="10.48" height="0.01" transform="translate(42.64 102.03) rotate(-55.49)"/><polygon class="cls-1" points="118.3 10.48 118.3 10.48 118.3 10.48 118.3 10.48"/><polygon class="cls-1" points="121.5 0.07 116.87 6.66 118.3 10.47 121.5 0.07"/><polygon class="cls-1" points="118.3 10.48 118.3 10.48 121.5 0.07 118.3 10.47 118.3 10.48"/><polygon class="cls-1" points="118.3 10.48 118.3 10.48 118.3 10.48 118.3 10.48"/></svg>