<?xml version="1.0" encoding="UTF-8"?><svg xmlns="http://www.w3.org/2000/svg" viewBox="0 0 150 150"><defs><style>.c{fill:#fff;}</style></defs><g id="a"/><g id="b"><g><path class="c" d="M150,75C150,33.58,116.42,0,75,0S0,33.58,0,75c0,37.43,27.43,68.46,63.28,74.09v-52.41h-19.04v-21.68h19.04v-16.52c0-18.8,11.2-29.18,28.33-29.18,8.21,0,16.79,1.46,16.79,1.46v18.46h-9.46c-9.32,0-12.22,5.78-12.22,11.71v14.07h20.8l-3.33,21.68h-17.48v52.41c35.85-5.63,63.28-36.65,63.28-74.09Z"/><path d="M104.19,96.68l3.33-21.68h-20.8v-14.07c0-5.93,2.91-11.71,12.22-11.71h9.46V30.76s-8.58-1.46-16.79-1.46c-17.13,0-28.33,10.38-28.33,29.18v16.52h-19.04v21.68h19.04v52.41c3.82,.6,7.73,.91,11.72,.91s7.9-.31,11.72-.91v-52.41h17.48Z"/></g></g></svg>