<?xml version="1.0" encoding="UTF-8"?><svg id="a" xmlns="http://www.w3.org/2000/svg" xmlns:xlink="http://www.w3.org/1999/xlink" viewBox="0 0 200 36"><defs><style>.g{fill:url(#c);}.h{fill:url(#f);}.i{fill:url(#b);}.j{fill:#f9f9f9;}.k{fill:url(#d);}.l{fill:url(#e);}.m{fill:#28696a;}</style><linearGradient id="b" x1="7.88" y1="3.86" x2="1.12" y2="27.5" gradientTransform="matrix(1, 0, 0, 1, 0, 0)" gradientUnits="userSpaceOnUse"><stop offset="0" stop-color="#28696a"/><stop offset=".08" stop-color="#235c5c"/><stop offset=".36" stop-color="#133434"/><stop offset=".62" stop-color="#091717"/><stop offset=".84" stop-color="#020606"/><stop offset="1" stop-color="#000"/></linearGradient><linearGradient id="c" x1="790.31" y1="3.86" x2="783.56" y2="27.5" gradientTransform="translate(817.5) rotate(-180) scale(1 -1)" xlink:href="#b"/><linearGradient id="d" x1="790.25" y1="-64.12" x2="783.5" y2="-40.49" gradientTransform="translate(817.5 -31.98) rotate(-180)" xlink:href="#b"/><linearGradient id="e" x1="1296.86" y1="-64.08" x2="1290.13" y2="-40.54" gradientTransform="translate(-1289 -31.98) scale(1 -1)" xlink:href="#b"/><linearGradient id="f" x1="17.53" y1="3.89" x2="17.53" y2="31.93" gradientTransform="matrix(1, 0, 0, 1, 0, 0)" gradientUnits="userSpaceOnUse"><stop offset="0" stop-color="#28696a"/><stop offset=".15" stop-color="#367273" stop-opacity=".95"/><stop offset=".29" stop-color="#619091" stop-opacity=".79"/><stop offset=".42" stop-color="#a9c3c3" stop-opacity=".52"/><stop offset=".53" stop-color="#fff" stop-opacity=".2"/><stop offset=".55" stop-color="#f6f8f8" stop-opacity=".23"/><stop offset=".73" stop-color="#85aaaa" stop-opacity=".65"/><stop offset=".89" stop-color="#407a7a" stop-opacity=".91"/><stop offset="1" stop-color="#28696a"/></linearGradient></defs><g><g><path class="m" d="M27.79,20.96h-4.35v-5.92h4.29c4.02,0,7.27-3.26,7.27-7.29S31.74,.47,27.73,.47s-7.27,3.26-7.27,7.29v4.3h-5.84V7.76C14.61,3.73,11.35,.47,7.34,.47S.06,3.73,.06,7.76s3.26,7.29,7.27,7.29h4.29v5.85H7.27c-4.02,0-7.27,3.26-7.27,7.29s3.26,7.29,7.27,7.29,7.27-3.26,7.27-7.29v-4.3h5.97v4.36c0,4.02,3.26,7.29,7.27,7.29s7.27-3.26,7.27-7.29-3.26-7.29-7.27-7.29Zm-4.35-13.2c0-2.37,1.92-4.3,4.29-4.3s4.29,1.92,4.29,4.3-1.92,4.3-4.29,4.3h-4.29V7.76ZM11.56,28.18c0,2.37-1.92,4.3-4.29,4.3s-4.29-1.92-4.29-4.3,1.92-4.3,4.29-4.3h4.29v4.3Zm.06-16.13H7.34c-2.37,0-4.29-1.92-4.29-4.3S4.97,3.46,7.34,3.46s4.29,1.92,4.29,4.3v4.3Zm8.83,8.54c0,.2-.17,.37-.37,.37h-5.11c-.2,0-.37-.17-.37-.37v-5.18c0-.2,.17-.37,.37-.37h5.11c.2,0,.37,.17,.37,.37v5.18Zm7.33,11.95c-2.37,0-4.29-1.92-4.29-4.3v-4.3h4.29c2.37,0,4.29,1.92,4.29,4.3s-1.92,4.3-4.29,4.3Z"/><path class="i" d="M7.4,15.04h4.22v-2.99H7.32c-2.33-.05-4.21-1.95-4.21-4.3S4.99,3.5,7.32,3.46V.47C3.34,.51,.12,3.76,.12,7.76s3.26,7.29,7.27,7.29Z"/><path class="g" d="M27.66,15.04h-4.22v-2.99h4.3c2.33-.05,4.21-1.95,4.21-4.3s-1.88-4.25-4.21-4.3V.47c3.98,.04,7.19,3.29,7.19,7.29s-3.26,7.29-7.27,7.29Z"/><path class="k" d="M27.73,20.96h-4.22v2.99h4.3c2.33,.05,4.21,1.95,4.21,4.3s-1.88,4.25-4.21,4.3v2.99c3.98-.04,7.19-3.29,7.19-7.29s-3.26-7.29-7.27-7.29Z"/><path class="l" d="M7.4,20.96h4.22v2.99H7.32c-2.33,.05-4.21,1.95-4.21,4.3s1.88,4.25,4.21,4.3v2.93c-3.98-.04-7.19-3.23-7.19-7.22s3.26-7.29,7.27-7.29Z"/></g><path class="h" d="M25.24,4.24h-3.9v5.93h-7.62V4.24h-3.9c0,.11,.01,.22,.01,.32v5.6h-.01v3.9h.01v7.63h-.01v10.07h3.82v-6.17h7.78v6.17h3.82v-9.98h-.01v-7.71h.01v-3.9h-.01V4.56c0-.11,0-.22,.01-.32Zm-3.89,9.82v7.71h-7.63v-7.71h7.63Z"/></g><g><path class="j" d="M46.83,7.38V28.62h-4.44V7.38h4.44Zm11.68,8.72v3.57h-13.9v-3.57h13.9Zm2.12-8.72V28.62h-4.44V7.38h4.44Z"/><path class="j" d="M75.34,7.06c2.1,0,3.91,.44,5.44,1.32,1.52,.88,2.7,2.13,3.52,3.76,.83,1.63,1.24,3.58,1.24,5.86s-.41,4.23-1.24,5.86c-.83,1.63-2,2.88-3.52,3.76-1.52,.88-3.34,1.32-5.44,1.32s-3.92-.44-5.45-1.32c-1.53-.88-2.71-2.13-3.54-3.76s-1.24-3.58-1.24-5.86,.41-4.23,1.24-5.86,2.01-2.88,3.54-3.76c1.53-.88,3.35-1.32,5.45-1.32Zm0,3.64c-1.18,0-2.19,.28-3.04,.84-.85,.56-1.49,1.38-1.93,2.48-.44,1.09-.66,2.42-.66,3.99s.22,2.9,.66,3.99c.44,1.09,1.08,1.92,1.93,2.48,.85,.56,1.86,.84,3.04,.84s2.19-.28,3.02-.84c.84-.56,1.47-1.38,1.91-2.48,.44-1.09,.66-2.42,.66-3.99s-.22-2.9-.66-3.99c-.44-1.09-1.08-1.92-1.91-2.48-.84-.56-1.84-.84-3.02-.84Z"/><path class="j" d="M94.45,25.05h11.2v3.57h-15.64V7.38h4.44V25.05Z"/><path class="j" d="M113.78,7.38V28.62h-4.44V7.38h4.44Z"/><path class="j" d="M127.52,7.38c3.32,0,5.9,.92,7.72,2.75,1.82,1.83,2.73,4.46,2.73,7.87s-.91,6.01-2.73,7.85c-1.82,1.84-4.4,2.77-7.72,2.77h-8.2V7.38h8.2Zm-.22,17.69c2.02,0,3.53-.61,4.55-1.82,1.02-1.21,1.53-2.96,1.53-5.26s-.51-4.05-1.53-5.26c-1.02-1.21-2.54-1.82-4.55-1.82h-3.54v14.16h3.54Z"/><path class="j" d="M160.11,28.62h-4.6l-1.77-5.18h-8.14l-1.77,5.18h-4.54l7.75-21.23h5.31l7.75,21.23Zm-13.51-8.46h6.14l-3.09-9.27-3.06,9.27Z"/><path class="j" d="M165.51,26.62l-.8-1.54h14.86v3.54h-17.66v-3.35l13.71-15.89,.77,1.54h-14.22v-3.54h17.02v3.35l-13.67,15.89Z"/><path class="j" d="M183.62,28.62V7.38h15.92v3.57h-11.49v5.28h9.04v3.41h-9.04v5.4h11.94v3.57h-16.38Z"/></g></svg>