<?xml version="1.0" encoding="UTF-8"?><svg xmlns="http://www.w3.org/2000/svg" viewBox="0 0 150 150"><defs><style>.c{fill:#fff;}</style></defs><g id="a"/><g id="b"><g><circle class="c" cx="75" cy="75" r="75"/><g><path d="M80.8,64.77c1.23-1.38,2.25-2.79,3.51-3.98,3.89-3.67,8.49-5.52,13.86-5.47,2.95,.02,5.87,.24,8.72,1.06,6.51,1.88,10.29,6.36,12.1,12.72,1.35,4.77,1.6,9.67,1.61,14.58,.02,10.36-.03,20.72,0,31.08,0,.97-.27,1.22-1.22,1.22-5.34-.04-10.68-.05-16.01,0-.94,0-1.14-.28-1.14-1.17,.03-9.86,.04-19.72,0-29.57,0-2.47-.17-4.94-.86-7.34-1.28-4.42-4.44-6.68-9.08-6.43-6.33,.33-9.62,3.47-10.43,9.9-.19,1.54-.28,3.08-.28,4.62,0,9.59,0,19.18,.03,28.76,0,.96-.24,1.24-1.21,1.23-5.38-.05-10.75-.04-16.13,0-.86,0-1.11-.23-1.11-1.1,.02-18.98,.02-37.96,0-56.95,0-.94,.31-1.16,1.19-1.15,5.11,.04,10.21,.04,15.32,0,.94,0,1.18,.3,1.16,1.19-.05,2.27-.02,4.54-.02,6.81Z"/><path d="M51.56,86.46c0,9.39-.02,18.78,.02,28.17,0,1.04-.26,1.36-1.34,1.35-5.33-.06-10.67-.05-16.01,0-.86,0-1.11-.21-1.11-1.09,.03-19.01,.02-38.03,0-57.04,0-.79,.19-1.07,1.03-1.06,5.41,.03,10.83,.05,16.24,0,1.04-.01,1.18,.39,1.18,1.28-.03,9.47-.02,18.94-.02,28.4Z"/><path d="M53.03,37.94c0,5.9-4.78,10.7-10.66,10.7-5.81,0-10.63-4.81-10.65-10.61-.02-5.87,4.8-10.7,10.67-10.69,5.83,0,10.63,4.79,10.64,10.6Z"/></g></g></g></svg>